<svg width="675" height="706" viewBox="0 0 675 706" fill="none" xmlns="http://www.w3.org/2000/svg">
<path fill-rule="evenodd" clip-rule="evenodd" d="M599.988 131.599C552.213 69.4933 486.815 25.1875 410.845 3.71175L408.104 2.93785H405.167C404.384 2.93785 403.209 2.74437 401.838 2.74437C399.684 2.5509 397.139 2.35742 394.202 2.35742C367.182 2.35742 343.098 20.3506 335.462 46.0828V46.2763C326.651 78.0062 344.861 110.704 377.168 120.571L377.755 120.764C480.158 149.399 551.625 242.847 551.821 348.291C551.821 478.5 444.718 584.524 312.945 584.524C248.723 584.524 188.221 559.566 142.991 514.099C131.439 502.684 116.166 496.493 99.7192 496.493C83.4678 496.493 68.1954 502.684 56.6432 513.906C44.8952 525.127 38.238 540.218 38.238 556.47C38.238 572.722 44.6994 587.813 56.4474 599.035C124.586 667.138 215.633 704.479 312.945 704.479C512.074 704.479 674 544.281 674 347.517C673.608 268.773 648.154 194.285 599.988 131.599Z" stroke="white" stroke-width="2"/>
<path fill-rule="evenodd" clip-rule="evenodd" d="M113.041 219.633C145.74 170.684 194.494 135.278 250.688 120.187C266.157 115.931 279.275 106.063 287.499 92.3267C295.918 78.203 298.072 61.9511 293.764 46.473L293.569 45.6991C284.953 19.3865 261.262 1.78027 234.241 1.78027C229.542 1.78027 224.647 2.3607 218.969 3.9085L218.577 4.10198C133.013 26.932 59.1962 80.3312 11.0295 154.045C2.02267 167.395 -1.11013 183.453 2.41427 199.512C5.74287 214.99 15.1413 228.533 28.6514 237.627C38.4414 244.011 50.3852 247.494 62.1332 247.494C82.6922 247.107 102.272 236.659 113.041 219.633Z" stroke="white" stroke-width="2"/>
</svg>
